PathFileType	4	(X/Y/Z)	C:/Users/beibeiliu/ov580/test_trc/User2\sequence.1_training_dense_right.trc
DataRate	CameraRate	NumFrames	NumMarkers	Units	OrigDataRate	OrigDataStartFrame	OrigNumFrames
120	120	20	19	mm	120	26	200
Frame#	Time	ThumbCMC			ThumbMCP			ThumbIP			ThumbTip			IndexMCP			IndexPIP			IndexTip			MiddleMCP			MiddlePIP			MiddleTip			RingMCP			RingPIP			RingTip			PinkyMCP			PinkyPIP			PinkyTip			BackHand1			BackHand2			BackHand3	
		X0	Y0	Z0	X1	Y1	Z1	X2	Y2	Z2	X3	Y3	Z3	X4	Y4	Z4	X5	Y5	Z5	X6	Y6	Z6	X7	Y7	Z7	X8	Y8	Z8	X9	Y9	Z9	X10	Y10	Z10	X11	Y11	Z11	X12	Y12	Z12	X13	Y13	Z13	X14	Y14	Z14	X15	Y15	Z15	X16	Y16	Z16	X17	Y17	Z17	X18	Y18	Z18	
25	0.208333	57.0518	73.9832	31.5016	38.7202	89.0222	16.9497	18	99.5945	-2.87315	-1.32746	104.589	-21.6293	41.7967	47.4126	-46.2707	26.3908	41.955	-70.2813	10.5973	33.5655	-93.3249	52.6124	15.6146	-54.9512	40.1528	4.75934	-76.9393	23.7522	-6.53534	-107.207	60.1978	-8.48815	-44.0473	50.3179	-20.3466	-67.3702	39.8805	-27.971	-87.1329	67.0066	-27.6799	-21.4025	59.9478	-43.5962	-37.6763	54.8855	-59.5867	-58.0388	88.4346	11.5512	6.19814	103.774	19.3259	32.0163	84.3521	49.0782	15.4046	
26	0.216667	64.8135	75.2848	32.0698	49.5721	94.2749	17.4125	29.4268	112.308	-3.79068	10.8372	120.703	-21.2193	42.0354	53.7404	-44.406	26.6548	48.1159	-67.0331	6.23951	47.3714	-90.2675	48.7947	22.8492	-50.3101	29.2978	9.96559	-76.5003	13.9267	-1.20304	-98.4106	50.213	-2.02933	-44.6824	36.7822	-12.8147	-64.5618	23.7323	-26.4094	-85.6974	54.4506	-25.7118	-19.15	41.937	-37.0499	-38.1767	33.4754	-52.0176	-54.0593	81.4587	13.9922	4.33475	100.125	15.9564	31.6635	88.3862	50.2242	15.2817	
27	0.225	74.5722	81.4396	34.9636	60.3107	102.467	18.7865	40.6271	120.333	-8.69425	25.2938	132.576	-20.0454	44.0067	57.8021	-45.8076	28.0896	59.309	-66.0923	8.19938	59.2265	-89.6609	45.0948	28.2926	-50.1395	25.526	18.6491	-73.972	3.96069	13.6485	-99.1211	45.7382	1.95977	-37.8046	28.3707	-4.0071	-60.3216	11.27	-17.327	-81.2337	45.0395	-17.9812	-16.5593	31.155	-33.1247	-30.022	17.4447	-42.9819	-53.0269	78.663	14.0357	3.57342	101.161	18.7382	33.215	88.6804	50.0996	11.7872	
28	0.233333	81.1956	81.5793	31.8638	71.2782	104.764	13.598	56.5932	123.585	-6.38097	43.0427	139.828	-21.8529	47.4363	66.6065	-47.5199	32.0577	69.1949	-66.0255	9.64366	70.5675	-90.1088	41.758	34.6248	-50.1143	21.7809	32.0153	-71.1018	-0.932834	26.2464	-95.5323	36.3387	9.56308	-39.377	20.1363	2.72471	-57.0645	1.61568	-2.04504	-77.0758	33.3371	-9.78764	-14.767	16.2162	-21.1907	-29.827	3.56798	-33.3147	-43.9036	76.4337	16.7182	5.84172	96.6469	14.2871	33.7486	90.7073	51.5295	11.0254	
29	0.241667	90.1323	79.7339	32.5823	83.4995	104.824	15.2935	72.7141	129.277	-10.5373	59.4429	142.07	-27.6763	50.156	67.5313	-47.9676	36.982	73.4732	-66.3552	17.7084	77.4724	-87.0584	39.8308	38.638	-50.0878	17.4617	38.8108	-71.0178	-4.12389	41.2581	-95.3215	32.1566	16.291	-35.1941	12.673	13.8926	-56.4385	-6.36583	12.687	-77.3109	25.7734	0.0176312	-11.4428	4.11007	-10.0599	-26.2181	-9.80092	-19.6793	-38.6646	71.6793	16.9155	5.37098	92.8867	10.9754	33.3252	94.9241	50.0861	14.2563	
30	0.25	98.8018	80.6388	27.378	96.4757	104.637	9.38282	87.3071	126.767	-12.651	77.5943	142.096	-28.0071	59.6446	73.579	-47.7948	41.4766	76.2961	-69.0894	26.4334	82.1987	-89.1732	41.2313	44.5704	-49.2071	18.7568	47.1678	-72.2522	-3.72968	49.2375	-93.1124	28.8458	23.172	-36.7718	10.9782	24.6374	-55.5402	-13.2545	22.2845	-75.6138	20.5118	10.6393	-12.027	-1.58232	6.71289	-26.115	-17.6321	-1.42977	-37.9134	69.1867	18.3929	6.9998	88.5304	13.66	31.7453	97.9021	46.6216	12.3626	
31	0.258333	106.791	77.9153	25.122	106.533	102.829	2.72669	101.361	124.258	-19.2343	94.4468	142.904	-36.912	65.8229	69.503	-48.7466	51.0222	78.8456	-73.8824	33.762	83.81	-94.9877	43.8855	46.597	-52.3803	22.2316	51.0059	-72.7506	0.140412	58.6466	-97.2316	28.6435	30.9144	-38.6009	8.64712	31.5829	-55.5115	-8.73966	36.262	-74.7707	18.2186	17.295	-10.3276	-2.94288	17.8283	-24.4197	-22.1604	14.2157	-40.1353	69.1	22.213	5.08037	91.0172	14.0302	31.5697	98.4461	42.2157	10.2011	
32	0.266667	117.234	75.0271	23.6966	118.414	98.8768	-1.56168	116.3	120.746	-27.04	108.588	137.279	-43.766	74.0806	67.3243	-51.5827	60.8956	79.1111	-79.5221	45.892	85.0688	-97.7233	50.4809	48.1973	-51.5488	29.247	56.5436	-77.249	4.76605	60.2619	-97.6462	31.7606	33.919	-38.3374	13.1125	37.652	-57.0477	-9.84311	41.3388	-77.1065	20.7294	24.4435	-11.758	-3.86755	23.7775	-22.9655	-25.0101	25.2847	-41.7588	69.0656	19.5012	5.58264	84.6914	11.7895	31.5288	99.9566	39.2558	5.77163	
33	0.275	121.524	69.6012	19.2517	128.896	91.5302	-1.28542	128.225	113.17	-28.4703	124.282	129.448	-50.5309	82.7036	64.3537	-59.839	70.8726	70.8947	-82.0068	53.6132	76.8629	-103.475	53.8266	43.7503	-53.0979	35.6747	52.0773	-80.3967	15.8068	59.1825	-102.013	32.4431	33.9556	-42.9656	15.8253	37.2618	-59.8835	-3.78405	42.2005	-77.7125	20.8743	26.6161	-16.0071	-0.403392	28.5759	-27.4669	-22.464	27.1023	-44.3627	72.2663	18.2386	2.76235	87.0621	11.9383	27.8471	107.789	37.5028	6.41942	
34	0.283333	125.13	63.6882	14.1586	135.549	84.4265	-8.96151	134.224	101.968	-32.3929	135.633	119.598	-56.1185	87.2262	52.7071	-60.7766	80.5427	61.3123	-90.7732	66.6693	66.2166	-110.372	63.6675	38.7335	-63.122	45.228	43.137	-85.236	22.4625	50.1116	-110.718	42.0541	29.3922	-46.9227	24.268	31.9698	-63.4307	5.5657	37.7159	-89.8825	26.0824	24.8697	-20.504	4.09313	27.1255	-33.2026	-12.6217	26.4401	-50.6906	73.8739	15.6752	3.69198	90.2028	9.27429	30.4017	109.942	31.4962	2.33691	
35	0.291667	128.25	59.947	15.7232	137.553	79.8107	-12.7662	141.258	98.3095	-38.1478	136.476	111.396	-58.4595	96.7567	47.1361	-67.2037	85.0119	50.2504	-89.1336	76.2673	56.4947	-114.909	67.9312	29.4748	-66.5487	51.0337	33.0597	-90.8805	30.1916	36.4805	-114.115	46.01	21.0176	-47.7082	30.8269	24.6943	-72.4321	10.5811	26.028	-94.5537	29.8254	18.5973	-26.7345	12.7241	21.6016	-37.8733	-7.67278	19.0681	-55.628	81.0566	11.64	-0.904399	93.4338	5.3046	31.0121	112.162	24.9674	2.57973	
36	0.3	128.472	58.9541	10.9177	136.318	78.0764	-9.98352	140.176	95.4548	-43.9688	138.404	109.441	-61.8074	97.9143	39.9219	-66.4982	92.866	44.9101	-92.6549	78.991	46.8785	-115.998	75.6722	25.1757	-68.8227	57.8404	25.6062	-92.215	40.726	27.9595	-121.934	52.8062	15.1846	-51.1943	35.2814	15.8552	-75.5078	19.6258	16.8643	-99.1881	35.2189	11.774	-25.1125	12.6057	9.97914	-44.9694	2.22846	7.98308	-59.5542	82.8906	9.88006	-1.58464	95.9283	3.8018	24.6133	116.368	23.8335	4.50838	
37	0.308333	126.296	60.3383	15.3748	135.846	80.5888	-9.67391	138.036	97.449	-44.1443	134.432	110.129	-63.3603	101.879	38.5039	-65.2396	94.8422	38.7156	-91.7557	88.0512	43.1423	-120.072	79.7743	17.8448	-68.5268	62.7562	16.1269	-94.2629	45.886	16.1864	-122.649	59.2723	6.68181	-52.881	43.1061	5.84768	-78.4829	31.1181	5.78194	-101.252	38.9407	2.25566	-29.0302	20.0268	-1.04081	-48.3882	7.50332	-5.25342	-67.4546	87.4889	4.11528	-1.17848	97.2294	-1.03677	25.2767	117.401	23.9349	-0.275169	
38	0.316667	125.858	61.7001	16.1166	132.401	81.5398	-8.93881	134.124	98.2398	-42.1692	129.671	111.454	-60.0688	105.058	36.3225	-69.0034	100.788	37.732	-95.2699	90.109	38.35	-121.868	84.2776	12.1494	-66.9497	72.9361	11.9324	-95.7272	57.6804	9.58713	-126.276	65.9105	1.38053	-58.0424	52.8314	-3.90973	-76.3351	40.9007	-4.58996	-103.813	47.9842	-4.96351	-30.3616	30.1623	-10.7507	-46.4878	18.3607	-16.589	-67.4451	91.3996	3.32191	-1.60536	103.509	0.487248	24.6987	120.858	23.0057	1.1957	
39	0.325	126.292	65.7828	15.4128	129.036	82.473	-12.9098	127.228	97.3481	-41.92	123.287	111.66	-60.0804	109.537	38.0118	-64.1022	105.721	37.1816	-93.0958	96.1382	36.4869	-121.544	91.9833	11.7226	-71.2205	77.4643	6.1046	-99.2128	62.4718	1.72414	-126.86	70.1615	-5.7633	-58.6296	60.4034	-9.49309	-80.4779	48.0351	-13.2048	-107.277	55.9639	-10.6659	-34.91	37.8514	-20.9429	-51.597	25.3752	-29.7403	-71.4068	94.1423	-1.01335	-2.75029	105.066	-1.55358	28.5437	123.843	25.5551	1.02262	
40	0.333333	121.917	66.517	13.0271	123.148	85.3001	-9.53781	122.119	102.24	-39.519	116.544	111.785	-61.4928	112.126	37.6432	-65.4592	105.586	34.0484	-93.2571	96.2789	32.6082	-124.016	95.2293	7.36842	-68.546	85.1456	4.88596	-96.3637	71.5704	-2.49993	-127.219	77.8494	-9.32872	-54.9562	68.6654	-14.8179	-80.9359	57.6434	-22.1328	-105.375	60.8208	-19.7183	-33.6254	46.0832	-30.1178	-52.7122	36.6485	-40.9349	-70.9782	100.353	0.00828393	-4.3651	110.999	-1.79439	26.9293	121.816	26.4171	3.30607	
41	0.341667	114.312	67.8675	14.7272	115.794	90.6612	-6.03261	111.729	103.735	-39.21	105.922	116.265	-62.5452	113.772	41.554	-66.422	108.686	37.2889	-94.8727	101.783	36.1445	-121.233	102.352	9.98274	-73.2237	91.3222	1.48117	-99.3182	78.9825	-6.4134	-129.423	87.0953	-11.9227	-60.574	81.0007	-16.3934	-81.839	69.1004	-26.5112	-111.32	71.844	-23.8062	-34.284	59.9763	-35.5072	-59.6108	52.2938	-48.4739	-73.591	107.296	-1.00687	-3.04636	113.071	1.04319	24.118	124.279	33.5514	3.75182	
42	0.35	107.539	68.4208	14.4607	105.723	91.4406	-4.81352	101.213	107.821	-38.446	94.2756	118.714	-61.5761	111.178	40.7938	-68.9207	108.132	39.0432	-93.0404	102.029	36.6485	-120.94	105.276	9.56758	-73.1328	97.8028	2.87447	-97.5337	88.8484	-4.5796	-128.975	95.5271	-7.83129	-61.1763	89.0711	-18.0237	-85.3746	82.7977	-23.2751	-110.442	80.9775	-27.7494	-36.5812	72.5271	-40.0303	-56.2975	67.6471	-53.5914	-77.869	111.817	1.36749	-3.67977	117.233	2.17311	23.8259	122.216	36.7431	0.87339	
43	0.358333	100.7	72.1557	16.9017	95.3395	90.6447	-4.04751	88.4248	106.451	-34.1853	80.1762	115.556	-55.2506	109.596	44.2877	-63.0673	108.479	45.9156	-96.4638	103.711	42.3033	-120.274	108.269	16.0438	-68.2222	102.989	10.3234	-100.211	96.8247	1.17961	-127.848	103.03	-6.74256	-59.7734	96.9978	-15.7466	-87.918	91.7572	-25.9846	-110.896	91.1091	-29.4398	-39.4706	83.9748	-39.0776	-60.7347	81.1416	-53.6906	-79.7902	115.39	5.00821	-2.98663	121.752	6.40224	24.7163	120.106	37.6437	6.57617	
44	0.366667	90.1178	67.9449	16.6642	82.3029	89.4503	-0.0797162	72.5238	104.541	-30.0082	62.8456	113.897	-52.4262	107.38	52.4053	-65.6083	105.295	53.5263	-90.5192	102.804	45.8988	-119.841	110.929	22.9867	-70.3093	107.79	13.3466	-99.9727	103.964	6.8357	-129.685	108.918	-3.08937	-63.3626	106.87	-10.0678	-88.8832	103.689	-19.355	-112.788	100.502	-22.2551	-41.9959	96.9299	-38.608	-63.6706	97.8696	-46.803	-84.7204	120.236	8.67792	-6.25188	122.305	10.834	29.5773	116.541	45.0106	8.97382	
